<svg width="30" height="28" viewBox="0 0 30 28" fill="none" xmlns="http://www.w3.org/2000/svg">
<path d="M25.3125 12.25H4.6875C4.43886 12.25 4.2004 12.1578 4.02459 11.9937C3.84877 11.8296 3.75 11.6071 3.75 11.375C3.75 11.1429 3.84877 10.9204 4.02459 10.7563C4.2004 10.5922 4.43886 10.5 4.6875 10.5H25.3125C25.5611 10.5 25.7996 10.5922 25.9754 10.7563C26.1512 10.9204 26.25 11.1429 26.25 11.375C26.25 11.6071 26.1512 11.8296 25.9754 11.9937C25.7996 12.1578 25.5611 12.25 25.3125 12.25Z" fill="#787486"/>
<path d="M21.5625 19.25H8.4375C8.18886 19.25 7.9504 19.1578 7.77459 18.9937C7.59877 18.8296 7.5 18.6071 7.5 18.375C7.5 18.1429 7.59877 17.9204 7.77459 17.7563C7.9504 17.5922 8.18886 17.5 8.4375 17.5H21.5625C21.8111 17.5 22.0496 17.5922 22.2254 17.7563C22.4012 17.9204 22.5 18.1429 22.5 18.375C22.5 18.6071 22.4012 18.8296 22.2254 18.9937C22.0496 19.1578 21.8111 19.25 21.5625 19.25Z" fill="#787486"/>
<path d="M17.8125 26.25H12.1875C11.9389 26.25 11.7004 26.1578 11.5246 25.9937C11.3488 25.8296 11.25 25.6071 11.25 25.375C11.25 25.1429 11.3488 24.9204 11.5246 24.7563C11.7004 24.5922 11.9389 24.5 12.1875 24.5H17.8125C18.0611 24.5 18.2996 24.5922 18.4754 24.7563C18.6512 24.9204 18.75 25.1429 18.75 25.375C18.75 25.6071 18.6512 25.8296 18.4754 25.9937C18.2996 26.1578 18.0611 26.25 17.8125 26.25Z" fill="#787486"/>
<path d="M27.1875 5.25H2.8125C2.56386 5.25 2.3254 5.15781 2.14959 4.99372C1.97377 4.82962 1.875 4.60706 1.875 4.375C1.875 4.14294 1.97377 3.92038 2.14959 3.75628C2.3254 3.59219 2.56386 3.5 2.8125 3.5H27.1875C27.4361 3.5 27.6746 3.59219 27.8504 3.75628C28.0262 3.92038 28.125 4.14294 28.125 4.375C28.125 4.60706 28.0262 4.82962 27.8504 4.99372C27.6746 5.15781 27.4361 5.25 27.1875 5.25Z" fill="#787486"/>
</svg>
