<svg width="40" height="40" viewBox="0 0 40 40" fill="none" xmlns="http://www.w3.org/2000/svg">
<g clip-path="url(#clip0_1046_6026)">
<mask id="mask0_1046_6026" style="mask-type:luminance" maskUnits="userSpaceOnUse" x="0" y="0" width="40" height="40">
<path d="M40 0H0V40H40V0Z" fill="white"/>
</mask>
<g mask="url(#mask0_1046_6026)">
<path d="M29.7707 35.7212C25.2202 49.3451 13.0826 53.5469 6.66516 36.6295C5.77984 34.3038 8.08718 33.4414 9.70186 32.4139C10.8074 31.712 11.3899 31.1065 11.3211 30.4781C11 27.524 9.62846 19.2946 9.62846 19.2946L9.49085 19.0285C9.49085 19.0285 9.52296 18.9552 9.38993 19.0836C9.25232 19.2212 8.9358 20.6524 7.69268 20.6524C6.56883 20.6524 5.4358 20.1524 4.89452 16.6937C4.6881 15.4414 4.79819 12.157 6.19268 11.5607C6.76608 11.3175 7.2936 11.2304 7.80736 11.524C8.32571 11.8175 7.21103 10.5148 12.945 5.74415C16.6697 2.63406 22.5551 2.17993 24.9312 2.70745C27.3074 3.23497 29.6789 4.39552 30.7294 6.85883C32.0046 9.84048 29.5413 12.1019 30.0872 18.9001C29.9863 21.3588 30.1239 26.7533 23.3624 28.5607C22.078 28.9047 22.4771 30.7808 24.4037 31.2396C27.4771 32.2029 29.7707 34.5561 29.7707 35.7304" fill="white"/>
<path fill-rule="evenodd" clip-rule="evenodd" d="M29.7706 14.5515L29.7752 14.4873C29.9633 12.8175 30.1513 11.1983 31.0183 9.74414C31.3165 9.94598 31.2798 10.2029 31.188 10.4414C30.2752 12.79 30.3624 15.2304 30.4449 17.6707L30.4633 18.3129C30.5596 21.3588 29.7981 24.1295 27.7706 26.4552C27.0642 27.2625 26.1284 27.8221 25.1789 28.3038C24.1972 28.8084 23.9908 29.2258 24.2981 30.3038L24.3348 30.423C24.3991 30.6019 24.4633 30.7854 24.289 30.9643C24.0825 31.1753 23.8532 31.1157 23.6101 31.0469L23.5825 31.0423C21.3082 30.4055 19.1756 29.3423 17.2981 27.9093C17.0229 27.7074 16.8027 27.4368 16.5871 27.1707L16.5734 27.1524C16.4587 27.0148 16.4357 26.7946 16.5963 26.6753C16.7477 26.5607 16.8624 26.6524 16.9954 26.7579L17.0413 26.7992C18.0429 27.6119 19.2586 28.117 20.5413 28.2533C21.1559 28.3175 21.7614 28.2946 22.3761 28.2717C22.7156 28.2579 23.055 28.2441 23.3991 28.2487C23.8669 28.2487 24.2568 28.0331 24.6238 27.8267L24.7523 27.7533C26.0275 27.0423 27.2431 26.2487 28.0642 24.9689C28.8027 23.8221 29.2523 22.5744 29.5137 21.2579C29.844 19.6019 29.8165 17.923 29.789 16.2212C29.7752 15.6707 29.766 15.1111 29.766 14.5515H29.7706ZM6.67887 11.0928C7.68345 11.0148 8.2385 11.6065 8.71098 12.2992C9.27096 13.1455 9.62303 14.1121 9.7385 15.1203C9.76144 15.29 9.78437 15.4689 9.68345 15.6386C9.47703 15.6662 9.45868 15.501 9.4541 15.3818C9.43116 14.4322 9.00914 13.6065 8.58712 12.8084C8.28437 12.235 7.84401 11.6799 7.14676 11.5423C6.35777 11.3818 5.633 12.0928 5.2752 13.0194C4.61006 14.7441 4.72474 16.4414 5.33942 18.1111C5.60547 18.8405 5.94034 19.5836 6.61465 20.0928C7.29355 20.6111 8.11465 20.5194 8.61465 19.8313L8.70639 19.7166C8.79813 19.5974 8.88988 19.4827 8.93575 19.3496C9.03208 19.0836 9.18345 18.8359 9.4541 18.8726C9.76602 18.9185 9.82107 19.2533 9.85318 19.5148C10.1377 21.9178 10.4742 24.3144 10.8624 26.7029L11.133 28.4827C11.2523 29.2671 11.3899 30.3955 11.2981 30.8726C11.2922 30.906 11.2876 30.9397 11.2844 30.9735C11.266 31.1019 11.2568 31.2029 11.0917 31.2258C10.8669 31.2625 10.7706 31.134 10.7385 30.9322C10.633 30.1524 10.6009 29.8496 10.555 28.657C10.5137 27.501 10.2981 26.3634 10.078 25.2212L9.84859 23.9827C9.61006 22.5698 9.37612 21.1386 9.35318 19.5331L9.26144 19.6707C8.91281 20.1891 8.633 20.6111 8.13758 20.7717C7.76983 20.9126 7.36681 20.933 6.98672 20.8299C6.60662 20.7268 6.26911 20.5056 6.0229 20.1983C5.37652 19.4682 4.92244 18.5884 4.7018 17.6386C4.31648 16.079 4.24767 14.5607 4.74309 13.024C4.98162 12.2854 5.83024 10.9735 6.67887 11.0974V11.0928ZM8.26602 16.9414C8.46786 17.0882 8.65134 17.2166 8.81648 16.6937C8.76602 14.7579 8.14217 13.5194 7.17428 13.4689C7.68804 14.1386 8.18345 14.79 8.22933 15.6937C8.03845 15.5962 7.87099 15.4585 7.7385 15.29C7.64676 15.1891 7.55501 15.0882 7.44034 15.0148L7.30272 14.9047C7.08254 14.7396 6.85777 14.5652 6.48621 14.6983C6.66052 14.9643 6.89905 15.157 7.14217 15.3405C7.4174 15.5561 7.69263 15.7671 7.85777 16.0974C7.37153 16.4506 7.16052 16.9093 7.41281 17.4689C7.633 17.9506 7.95868 18.3496 8.60089 18.3772C8.57336 18.0882 8.38529 17.8772 8.19722 17.6707C7.96786 17.423 7.75226 17.1845 7.85318 16.8175C7.99997 16.7487 8.13758 16.8496 8.26602 16.9414Z" fill="black"/>
<path d="M48.4126 60.5061L-11.3901 60.3456C-11.3901 60.3456 -9.24793 46.396 -3.52775 39.9327C-0.963531 37.0382 1.1695 34.1804 6.89885 32.1254C7.8805 31.7722 9.33463 28.0887 10.1145 27.7034C10.853 27.3364 10.3667 30.0979 11.0502 30.6575C12.4439 31.8205 13.9152 32.8871 15.4539 33.8502C18.1557 35.5566 19.3989 39.1208 19.3989 39.1208C19.3989 39.1208 20.6099 35.685 21.619 33.997C22.33 32.8043 24.7062 29.2997 24.7062 29.2997C24.7062 29.2997 29.0502 30.6575 30.6603 31.8547C31.6374 32.5795 31.064 32.419 35.4952 34.9511C39.3438 37.1483 43.119 43.1667 45.1282 48.1621C47.2658 53.474 48.4126 60.5015 48.4126 60.5015V60.5061Z" fill="white"/>
<path fill-rule="evenodd" clip-rule="evenodd" d="M48.1192 60.506C47.8119 59.2675 47.5458 58.029 47.2798 56.7859C47.1651 56.2354 47.0504 55.6849 46.9265 55.1437C46.5504 53.4464 46.055 51.795 45.5091 50.1528C44.9831 48.5553 44.3392 46.999 43.5825 45.4969C42.8309 43.963 41.9725 42.4839 41.0137 41.0703C39.6376 39.084 38.1421 37.1941 36.1605 35.7767C34.7201 34.7492 33.1238 33.9785 31.5321 33.2125C30.9678 32.9372 30.3899 33.0657 29.8256 33.1895L29.6421 33.2354C29.188 33.3271 28.7431 33.4281 28.2935 33.529C27.7549 33.6517 27.2151 33.7694 26.6743 33.8822C26.4403 33.9281 26.3532 34.0657 26.2843 34.2583L26.0091 35.0611C25.821 35.6207 25.6284 36.1803 25.4541 36.7446C25.3348 37.1207 25.133 37.2859 24.7339 37.2767C24.3944 37.2721 24.055 37.2767 23.7155 37.2859C23.3486 37.2904 22.9862 37.2996 22.6238 37.2904C21.9816 37.2767 21.6651 37.506 21.7431 38.2767C21.8302 39.1024 21.8256 39.9326 21.8256 40.7675C21.8256 41.2583 21.8256 41.7492 21.8394 42.2446C21.8853 43.506 21.8853 44.7813 21.8623 46.0381C21.8165 48.3914 21.8165 50.7446 21.8165 53.1024C21.821 55.5427 21.8256 57.9877 21.7706 60.451C21.5943 60.5026 21.4073 60.5058 21.2293 60.4602C21.1697 57.9785 21.1421 55.5381 21.1559 53.0978C21.1651 51.6391 21.1559 50.1758 21.1513 48.7125C21.133 45.7813 21.1192 42.8501 21.2339 39.9189C21.2431 39.7583 21.188 39.6115 21.0091 39.607C20.9045 39.724 20.799 39.8402 20.6926 39.9556C20.1054 40.5978 19.5275 41.2308 19.2522 42.1528C18.8715 41.7125 18.7155 41.1987 18.5596 40.7079C18.3898 40.162 18.2247 39.6391 17.7798 39.2446C17.688 39.5106 17.688 39.7537 17.688 40.0015V41.5152L17.6972 44.6803L17.6926 48.5519C17.688 51.3501 17.6834 54.1437 17.6926 56.9372C17.6972 57.2767 17.6926 57.6161 17.6788 57.951C17.6605 58.8042 17.6376 59.6574 17.7706 60.5015H17.1192C17.059 59.547 17.03 58.5908 17.0321 57.6345V39.3317C17.0321 38.2308 16.6788 37.9189 15.6284 37.6345C13.8853 37.1758 12.133 36.6758 10.7935 35.3547C10.2981 34.8684 9.766 35.1115 9.32563 35.3088L9.27058 35.3363C8.87609 35.5198 8.46783 35.6528 8.05958 35.7859C7.50912 35.9693 6.95866 36.1528 6.44948 36.4418C6.34398 36.4969 6.24765 36.5611 6.14673 36.6253C5.95571 36.7542 5.75298 36.8647 5.54123 36.9556L5.44031 37.0015C5.30269 37.0657 5.16967 37.1253 5.0137 36.9785C4.83939 36.8226 4.84398 36.6574 4.92196 36.451L5.18343 35.6666C5.41279 34.9693 5.64214 34.2767 5.9449 33.6024L5.99077 33.5106C6.05499 33.4051 6.11462 33.2996 6.05499 33.1574C5.8715 33.0336 5.70178 33.1253 5.5504 33.2079L5.46783 33.2537L5.36691 33.2996L5.27517 33.3455C3.33022 34.3226 1.38526 35.2996 -0.220242 36.8317C-1.36504 37.9058 -2.42336 39.0684 -3.38538 40.3088C-5.23372 42.7641 -6.74128 45.4583 -7.86703 48.318C-8.9496 51.0152 -9.88538 53.7767 -10.3579 56.6666C-10.4496 57.1987 -10.5322 57.7308 -10.6193 58.2675L-10.9817 60.4556C-11.234 60.5015 -11.4771 60.5015 -11.7661 60.5015C-11.5551 58.9877 -11.312 57.4739 -11.023 55.9648C-10.9175 55.4189 -10.7799 54.8822 -10.6377 54.3455C-10.5551 54.0152 -10.4679 53.6895 -10.3946 53.3593C-10.1344 52.3263 -9.82363 51.3067 -9.46336 50.3042L-9.41749 50.1803C-8.46416 47.2999 -7.17062 44.5434 -5.56428 41.9693C-4.78926 40.735 -3.91479 39.566 -2.9496 38.4739C-1.20648 36.4877 0.720125 34.7125 3.13756 33.5978C4.44948 32.9923 5.66967 32.2675 6.88068 31.4969C7.22471 31.2767 7.38526 30.9602 7.5504 30.6437C7.61462 30.529 7.67425 30.4097 7.74765 30.295C8.42196 29.217 9.12379 28.1666 10.1834 27.4143L10.2568 27.3592C10.3899 27.2537 10.5183 27.1574 10.7018 27.2675C10.8669 27.3592 10.8577 27.5015 10.8532 27.6528V27.7813C10.8807 28.5427 10.9449 29.2996 11.0091 30.0565C11.0321 30.2996 11.133 30.5152 11.3761 30.6253C12.4036 31.0978 13.2798 31.7859 14.1559 32.4785C14.6834 32.8914 15.211 33.3042 15.7706 33.6712C17.12 34.528 18.2384 35.7031 19.0275 37.0932C19.1192 37.2583 19.188 37.4326 19.266 37.6345L19.3853 37.9372C19.8119 36.217 20.7293 34.8088 21.6467 33.4097L22.1834 32.584C22.2752 32.4372 22.3486 32.2813 22.422 32.1253C22.5229 31.9143 22.6238 31.7033 22.7798 31.5106C22.8926 31.3732 22.9631 31.206 22.9826 31.0293C23.0022 30.8525 22.9699 30.674 22.8899 30.5152C22.7889 30.2996 22.7339 30.0748 22.821 29.8409C23.211 29.7216 23.4174 29.9464 23.6376 30.1804L23.6834 30.2262C24.0963 29.9602 24.0504 29.6161 23.8348 29.2492C23.7614 29.1207 23.6972 28.9969 23.8073 28.873C23.9128 28.7583 24.055 28.7721 24.1926 28.8134C25.8944 29.3042 27.5871 29.8226 29.1559 30.6758C29.3715 30.795 29.5963 30.9051 29.821 31.0106C30.4311 31.3042 31.0412 31.5978 31.4862 32.0886C32.1926 32.8684 33.0963 33.2904 33.9999 33.7125C34.5412 33.9693 35.0779 34.217 35.5779 34.5473C36.6995 35.2472 37.7369 36.0737 38.6697 37.0106C39.7247 38.1253 40.7109 39.3042 41.5687 40.5703C42.321 41.6712 43.0366 42.7996 43.6605 43.9877C44.5102 45.6057 45.2459 47.281 45.8623 49.0015C46.4357 50.5932 46.9265 52.2079 47.3623 53.8409C47.6743 55.0244 47.8761 56.2262 48.0733 57.4326C48.2431 58.4418 48.4082 59.451 48.6421 60.4602C48.4954 60.506 48.3348 60.506 48.1192 60.506ZM18.1972 36.8914C17.138 35.6222 15.8967 34.517 14.5137 33.6115C14.0996 33.3382 13.7028 33.0394 13.3256 32.717C12.7752 32.2675 12.2247 31.8134 11.5733 31.5152C10.8027 31.1666 10.3899 30.6712 10.3623 29.8409V29.7308C10.3577 29.5519 10.3532 29.373 10.3302 29.1987C10.2935 28.8501 9.88526 28.6666 9.66967 28.9281C9.59627 29.0198 9.50912 29.0932 9.42655 29.1712C9.30568 29.2707 9.19916 29.3865 9.11003 29.5152C8.05499 31.1941 7.00912 32.873 6.24765 34.7125C6.14673 34.9602 6.07792 35.2859 6.28893 35.4877C6.45866 35.6528 6.67425 35.5657 6.88526 35.4785C6.92171 35.4626 6.95842 35.4474 6.99535 35.4326L7.88985 35.0932C8.49077 34.8547 9.09627 34.6207 9.71554 34.4326C10.3715 34.2354 10.8715 34.3501 11.3348 34.8684C11.8254 35.3906 12.4253 35.7978 13.0917 36.0611C13.821 36.3822 14.5688 36.6253 15.3165 36.873C15.9678 37.0886 16.6192 37.3042 17.2568 37.5657C18.0412 37.8868 18.7706 38.3042 18.7614 39.3317C18.7614 39.4923 18.7981 39.6528 19.0642 39.6299C19.1972 39.2629 19.1972 38.8959 19.0137 38.529L18.7752 38.0427C18.5917 37.6758 18.4082 37.2996 18.1972 36.8914ZM26.5137 30.2446L26.9265 30.3914L28.9678 31.3317C29.338 31.4997 29.708 31.6679 30.0779 31.8363C30.2247 31.9051 30.3853 31.9739 30.3853 32.162C30.3853 32.3638 30.2247 32.3914 30.0779 32.4189L29.9954 32.4372C29.7732 32.4906 29.5515 32.5457 29.3302 32.6024C28.7614 32.7446 28.1926 32.8868 27.61 32.9739C26.3899 33.1574 25.7293 33.6482 25.3944 34.8226C25.3532 34.9693 25.3027 35.1161 25.2477 35.2583C25.1743 35.4648 25.1054 35.6712 25.0642 35.873C24.9495 36.4235 24.5963 36.4785 24.1697 36.5152L23.3577 36.607C22.9128 36.6528 22.4678 36.7079 22.0183 36.7354C21.6513 36.7583 21.4403 36.9464 21.3027 37.24C21.1972 37.4602 21.0779 37.6712 20.9632 37.8822C20.7431 38.2813 20.5183 38.6804 20.3853 39.1207C20.321 39.3226 20.2293 39.6253 19.8486 39.6161C19.9403 38.5152 20.2155 37.4464 20.6513 36.4372C20.9495 35.7492 21.3669 35.1391 21.7843 34.5336C22.133 34.0198 22.4816 33.506 22.7614 32.9556C23.2752 31.9235 24.0275 31.1024 24.7889 30.2813L25.0275 30.0198C25.188 29.8409 25.2981 29.7904 25.5137 29.873C25.8486 30.0106 26.1834 30.1299 26.5229 30.2492L26.5137 30.2446Z" fill="black"/>
<path fill-rule="evenodd" clip-rule="evenodd" d="M30 43.1844C29.7339 41.5606 29.7706 40.0193 30.5183 38.4551C31.8532 39.9597 31.8211 41.712 31.7935 43.423L31.7844 44.1432C32.0137 44.2303 32.1376 44.1477 32.2477 44.0743L32.3578 44.0101C32.9312 43.7578 33.1055 43.8633 33.2018 44.5009C33.3761 45.6569 33.3853 46.8266 33.3945 47.9918L33.399 48.4964C33.399 48.8129 33.2293 49.0422 33.0091 49.189C32.4197 49.6262 31.8866 50.1347 31.422 50.7028C31.1192 51.0376 30.8165 51.3771 30.4862 51.6844C30.0321 52.0973 29.2614 52.2349 28.7614 51.8542L28.2798 51.4918C27.555 50.9505 26.8348 50.4138 26.1468 49.8221C25.8145 49.5657 25.5606 49.2214 25.4138 48.8283C25.2671 48.4351 25.2334 48.0086 25.3165 47.5973C25.3945 47.1202 25.4357 46.634 25.477 46.1432C25.5137 45.7578 25.5458 45.3725 25.5963 44.9872C25.7247 44.0376 25.9036 43.9276 26.766 44.3037C26.844 44.3358 26.922 44.3587 27 44.3771C27.2064 44.4321 27.422 44.4918 27.6101 44.7441L27.7018 44.056C27.7752 43.5055 27.844 42.9964 27.8394 42.478V42.4505C27.8394 42.3771 27.8394 42.2854 27.8027 42.2578C26.977 41.6982 27.1284 40.9643 27.4954 40.2532L27.5413 40.1615C27.8117 39.7148 27.9968 39.2217 28.0871 38.7074C28.0871 38.6523 28.1376 38.6019 28.1789 38.5514L28.2339 38.4872L28.3027 38.5009L28.3715 38.5193C28.4403 38.9964 28.6926 39.3771 28.9403 39.7624C29.1513 40.0881 29.3624 40.4138 29.4679 40.7945C29.5871 41.2487 29.5137 41.6294 29.188 41.9184C28.8669 42.2074 28.8211 42.5422 28.8669 42.9276L28.8991 43.2028C28.9266 43.4184 28.9541 43.6386 28.9633 43.8587C29.0046 44.6707 29.1284 44.7716 30.0137 44.611C30.1009 44.1523 30.0734 43.6936 30 43.1844ZM31.344 49.6982C31.3899 49.6523 31.4449 49.611 31.4954 49.5698C31.6041 49.4722 31.719 49.3818 31.8394 49.2991C32.4816 48.8863 32.7935 48.3542 32.6835 47.5422C32.6238 47.0973 32.6376 46.6477 32.6376 46.1936C32.6468 45.9597 32.6468 45.7257 32.6422 45.4918V45.3817C32.6422 45.1707 32.6422 44.9551 32.4587 44.7854C32.2477 44.8312 32.0504 44.923 31.8578 45.0147C31.5825 45.1386 31.3073 45.2624 31.0091 45.2624C30.6697 45.2624 30.3302 45.2716 29.9908 45.2854C28.9082 45.3221 27.8257 45.3633 26.7844 44.9276C26.4266 44.7762 26.2844 44.8909 26.266 45.267C26.2201 46.1844 26.1055 47.0927 25.9403 47.9918L25.9357 48.0101C25.8807 48.2991 25.8211 48.6386 26.1009 48.8725C27.0932 49.6856 28.0901 50.493 29.0917 51.2945C29.4495 51.5881 29.8165 51.5239 30.0596 51.1753C30.2543 50.9157 30.4674 50.6704 30.6972 50.4413C30.9128 50.212 31.1376 49.9734 31.3394 49.6982H31.344ZM30.4128 41.0881C30.4679 41.1156 30.5275 41.1477 30.5871 41.1248L31.1376 41.056C30.7706 41.4321 30.5458 41.4367 30.1697 41.0927C30.2568 41.0055 30.3348 41.0468 30.4128 41.0881Z" fill="black"/>
<path d="M30.8029 2.28517C31.491 4.11086 32.124 5.48701 32.0047 7.40903C31.9589 8.11545 31.4451 9.23013 31.2708 9.90903C31.0277 10.8448 30.5185 11.7026 30.4589 12.6934C30.4497 12.8173 30.3579 12.8999 30.1469 12.9411C29.7891 12.4732 29.7433 11.8769 29.7249 11.3265C29.6699 9.60627 29.5873 7.89526 29.202 6.21636C29.0919 5.74389 28.913 5.29435 28.7249 4.71636C28.5552 6.276 28.5552 6.26682 27.1378 6.28976C24.5873 6.33563 22.046 6.48701 19.5231 6.85398C18.8029 6.95948 18.7433 6.91361 18.2479 5.99159C17.7433 6.33104 17.757 6.93655 17.5047 7.39526C16.7387 8.8127 15.7524 10.0145 14.2937 10.7852C13.7891 11.0512 12.7616 11.0145 11.5965 10.7072C11.1607 12.0971 10.1056 13.3035 10.4772 14.9365C10.541 15.2042 10.5453 15.4825 10.4899 15.752C10.4344 16.0215 10.3205 16.2755 10.1561 16.4962C9.9818 16.7439 9.78914 16.7852 9.5506 16.7118C9.30748 16.6384 9.42216 16.4411 9.42675 16.2714C9.44969 14.776 9.0873 13.3586 8.23868 12.1292C7.45886 10.9916 5.61941 11.276 5.03226 12.5604C4.92675 12.7989 4.87629 13.0833 4.50473 13.3127C4.43593 12.4732 4.42216 11.7072 4.50932 10.9503C4.68492 9.18764 5.0699 7.45217 5.65611 5.78059C6.51843 3.34971 8.03036 1.2016 10.0277 -0.430424C12.1531 -2.14406 14.7394 -3.18816 17.4589 -3.43042C18.0093 -3.49006 18.5552 -3.59556 19.1056 -3.65061C21.038 -3.83722 22.9877 -3.5896 24.8121 -2.92584C27.28 -2.05428 29.4084 -0.714828 30.5231 1.78517C30.5919 1.94572 30.6928 2.09251 30.8029 2.28517ZM8.97721 18.4916C9.1607 18.4411 9.28914 18.4503 9.34418 18.6246C9.73868 19.7347 9.75703 20.8907 9.70198 22.0421C9.67904 22.4824 8.94969 23.0145 8.33959 23.0971C7.75702 23.1705 7.21574 23.0925 6.8717 22.5466C6.68822 22.2576 6.82583 21.9503 6.93134 21.6063C6.27537 21.6246 5.70657 21.8815 5.11941 21.6063C4.33959 21.2439 4.26161 20.8998 4.88088 20.3219L5.04143 20.1246C4.7662 19.776 4.31666 19.7255 4.03225 19.4136C3.71574 19.0788 3.66987 18.7622 3.92675 18.4274C4.2662 17.9916 4.80748 17.909 5.17446 18.198C5.31666 18.2989 5.43592 18.4365 5.51849 18.5925C5.69109 18.9379 5.95813 19.2273 6.28859 19.427C6.61906 19.6268 6.9994 19.7287 7.38547 19.721C8.22033 19.7439 8.68363 19.2485 8.97721 18.4916Z" fill="black"/>
<path d="M20.0917 23.8906C19.9816 24.7026 20.8303 25.3815 21.578 25.0833C21.3807 24.3585 20.6238 24.2851 20.0917 23.8906Z" fill="white"/>
<path fill-rule="evenodd" clip-rule="evenodd" d="M19.6009 24.6707C20.1697 25.7441 21.2523 26.0423 22.4312 25.4184C22.9129 25.1249 23.1147 24.657 23.289 24.2212C23.3638 24.0434 23.3965 23.8507 23.3846 23.6581C23.3727 23.4655 23.3164 23.2783 23.2202 23.1111C22.578 21.9276 21.789 21.8955 20.8395 22.0744C19.8073 22.2717 19.1055 23.7441 19.6009 24.6707ZM21.578 25.0836C20.8303 25.3818 19.9817 24.7029 20.0917 23.8909C20.2615 24.0148 20.4495 24.1065 20.6376 24.1983C21.0459 24.3955 21.445 24.5882 21.578 25.0836Z" fill="black"/>
<path d="M19.3578 21.6523C19.734 21.8221 19.711 22.0789 19.5505 22.3404C19.4312 22.5468 19.2523 22.6707 19.0138 22.5239C18.7936 22.3863 18.844 22.1982 18.9679 22.0193C19.0688 21.8817 19.1055 21.6845 19.3578 21.6523Z" fill="black"/>
<path d="M23.4127 19.569C23.1833 19.5782 23.0136 19.5506 22.8622 19.436C22.7338 19.3442 22.7155 19.2158 22.743 19.0736C22.7659 18.9222 22.8898 18.8993 23.009 18.9084C23.6558 18.9405 24.2934 18.8855 24.8944 18.6149C25.0411 18.546 25.1696 18.6057 25.2476 18.7341C25.3255 18.8763 25.3393 19.0231 25.2109 19.1653C24.9815 19.4314 24.6971 19.5782 24.3393 19.569H23.4173H23.4127Z" fill="black"/>
<path d="M27.2291 16.2857C27.0365 15.8499 26.775 15.5885 26.3209 15.5655C26.0456 15.5518 25.9998 15.3316 25.9126 15.116C26.0044 15.0472 26.0732 14.9463 26.1557 14.9417C27.1236 14.8637 28.1007 14.8591 29.0686 14.9371C29.3438 14.9555 29.4952 15.3041 29.2154 15.4142C28.7567 15.5977 28.642 16.0197 28.3667 16.3224C27.9906 16.7353 27.6695 16.7399 27.2291 16.2857ZM18.4677 14.9279C19.0273 14.96 19.5273 14.9738 20.0273 15.0197C20.1924 15.0334 20.3943 15.1022 20.3943 15.327C20.3943 15.5839 20.1833 15.5655 20.0135 15.561C19.7245 15.561 19.5686 15.6848 19.4401 15.9555C19.2842 16.2949 19.1236 16.6573 18.6145 16.6344C18.1328 16.6114 17.9218 16.3041 17.7842 15.9371C17.6833 15.6756 17.5548 15.5518 17.2796 15.561C17.1236 15.5655 16.9539 15.5518 16.9356 15.3362C16.9172 15.1068 17.0732 15.061 17.2567 15.0059C17.6513 14.9008 18.0628 14.8743 18.4677 14.9279Z" fill="black"/>
<path d="M21.5228 12.1208C21.2659 12.8914 21.22 12.8272 20.4677 12.6529C19.2659 12.3777 18.0503 11.7722 16.7842 12.4556C16.6925 12.5061 16.5549 12.5015 16.4356 12.4923C16.2705 12.4832 16.0595 12.552 15.9723 12.341C15.876 12.1116 16.0411 11.9602 16.2154 11.8685C17.1191 11.4098 17.9356 10.7538 19.0778 10.8731C19.665 10.9327 20.2705 10.7446 20.8806 10.763C21.7429 10.7951 21.9081 11.0245 21.6145 11.8593L21.5228 12.1254V12.1208ZM29.2062 11.1391C29.6466 11.4419 29.7796 11.9098 30.0457 12.2859C30.0956 12.3483 30.1204 12.4271 30.1153 12.5068C30.1102 12.5866 30.0756 12.6615 30.0182 12.7171C29.9081 12.841 29.7705 12.8456 29.6466 12.7722C28.7705 12.2676 27.8622 12.4786 26.9861 12.7171C26.5182 12.841 26.3163 12.6804 26.1971 12.2951C26.1191 12.0336 26.064 11.7676 26.0319 11.4969C25.9723 11.0474 26.3484 10.9511 26.6283 10.9373C27.4769 10.896 28.3439 10.7309 29.2062 11.1391Z" fill="black"/>
</g>
</g>
<defs>
<clipPath id="clip0_1046_6026">
<path d="M0 20C0 8.95431 8.95431 0 20 0C31.0457 0 40 8.95431 40 20C40 31.0457 31.0457 40 20 40C8.95431 40 0 31.0457 0 20Z" fill="white"/>
</clipPath>
</defs>
</svg>