<?xml version="1.0"?>
<svg width="24" height="24" xmlns="http://www.w3.org/2000/svg" xmlns:svg="http://www.w3.org/2000/svg">
 <g class="layer">
  <title>Layer 1</title>
  <path d="m13,3.69a0.75,0.75 0 0 0 -0.8,-0.62l-0.95,0.02c-4.03,0.4 -7.23,3.7 -7.23,7.83l0,3.1c0,2.77 -1.85,4.64 -1.85,4.64a0.75,0.75 0 0 0 0.53,1.28l6.3,0c0,1.65 1.35,3 3,3c1.65,0 3,-1.35 3,-3l6.3,0a0.75,0.75 0 0 0 0.53,-1.28c0,0 -1.85,-1.87 -1.85,-4.64l0,-3.1c0,-4.13 -3.2,-7.43 -7.23,-7.83l-0.49,-0.02a0.75,0.75 0 0 0 0.74,0.62zm-1,0.74c3.59,0 6.48,2.89 6.48,6.48l0,3.1c0,2.03 0.7,3.43 1.35,4.42l-15.66,0c0.65,-0.99 1.35,-2.39 1.35,-4.42l0,-3.1c0,-3.59 2.89,-6.48 6.48,-6.48zm-1.5,15.5l3,0c0,0.84 -0.66,1.5 -1.5,1.5c-0.84,0 -1.5,-0.66 -1.5,-1.5z" fill="#7f7f7f" id="svg_1"/>
  <rect height="22" id="svg_7" width="25" x="139" y="7"/>
  <ellipse cx="198" cy="93" id="svg_9" rx="21" ry="39"/>
  <g id="svg_10">
   <ellipse cx="205" cy="-61" id="svg_2" rx="68" ry="68" stroke="#000000" stroke-width="4"/>
   <ellipse cx="187" cy="-75" id="svg_3" rx="78" ry="121" stroke="#000000" stroke-width="4"/>
   <circle cx="231" cy="39" id="svg_4" r="89.2" stroke="#000000" stroke-width="4"/>
   <circle cx="229" cy="20" id="svg_5" r="62.18" stroke="#000000" stroke-width="4"/>
   <circle cx="232" cy="36" id="svg_6" r="87.71" stroke="#000000" stroke-width="4"/>
   <ellipse cx="227" cy="-1" id="svg_8" rx="33" ry="35" stroke="#000000" stroke-width="4"/>
  </g>
  <circle cx="231" cy="29" fill="#000000" id="svg_11" r="97.53" stroke="#000000" stroke-width="4"/>
  <circle cx="239" cy="55" fill="#000000" id="svg_12" r="111.68" stroke="#000000" stroke-width="4"/>
  <circle cx="115" cy="67" fill="#000000" id="svg_13" r="50.99" stroke="#000000"/>
  <circle cx="170" cy="-21" fill="#ff0000" id="svg_14" r="2.76" stroke="#ef0000"/>
 </g>
</svg>